<svg xmlns="http://www.w3.org/2000/svg" width="16.500" height="16.500" viewBox="0 0 16.500 16.500" fill="none">
  <path d="M 0 16.5 L -0.917 16.5 C -0.917 17.006 -0.506 17.417 0 17.417 L 0 16.5 Z M 0 5.5 L -0.508 4.737 C -0.763 4.907 -0.917 5.194 -0.917 5.5 L 0 5.5 Z M 8.25 0 L 8.758 -0.763 C 8.451 -0.968 8.049 -0.968 7.742 -0.763 L 8.25 0 Z M 16.5 5.5 L 17.417 5.5 C 17.417 5.194 17.263 4.907 17.008 4.737 L 16.5 5.5 Z M 16.5 16.5 L 16.5 17.417 C 17.006 17.417 17.417 17.006 17.417 16.5 L 16.5 16.5 Z M 0 16.5 L 0.917 16.5 L 0.917 5.5 L 0 5.5 L -0.917 5.5 L -0.917 16.5 L 0 16.5 Z M 0 5.5 L 0.508 6.263 L 8.758 0.763 L 8.25 0 L 7.742 -0.763 L -0.508 4.737 L 0 5.5 Z M 8.25 0 L 7.742 0.763 L 15.992 6.263 L 16.5 5.5 L 17.008 4.737 L 8.758 -0.763 L 8.25 0 Z M 16.5 5.5 L 15.583 5.5 L 15.583 16.5 L 16.5 16.5 L 17.417 16.5 L 17.417 5.5 L 16.5 5.5 Z M 16.5 16.5 L 16.5 15.583 L 0 15.583 L 0 16.5 L 0 17.417 L 16.5 17.417 L 16.5 16.5 Z" fill="currentColor" fill-rule="nonzero"/>
</svg>
