<svg xmlns="http://www.w3.org/2000/svg" width="7" height="14" viewBox="0 0 7 14" fill="none">
  <path d="M 6.175 14.825 C 6.631 15.281 7.369 15.281 7.825 14.825 C 8.281 14.369 8.281 13.631 7.825 13.175 L 7 14 L 6.175 14.825 Z M 0 7 L -0.825 6.175 C -1.281 6.631 -1.281 7.369 -0.825 7.825 L 0 7 Z M 7.825 0.825 C 8.281 0.369 8.281 -0.369 7.825 -0.825 C 7.369 -1.281 6.631 -1.281 6.175 -0.825 L 7 0 L 7.825 0.825 Z M 7 14 L 7.825 13.175 L 0.825 6.175 L 0 7 L -0.825 7.825 L 6.175 14.825 L 7 14 Z M 0 7 L 0.825 7.825 L 7.825 0.825 L 7 0 L 6.175 -0.825 L -0.825 6.175 L 0 7 Z" fill="currentColor" fill-rule="nonzero"/>
</svg>
