<svg xmlns="http://www.w3.org/2000/svg" width="5" height="10" viewBox="0 0 5 10" fill="none">
  <path d="M -0.589 9.411 C -0.915 9.736 -0.915 10.264 -0.589 10.589 C -0.264 10.915 0.264 10.915 0.589 10.589 L 0 10 L -0.589 9.411 Z M 5 5 L 5.589 5.589 C 5.915 5.264 5.915 4.736 5.589 4.411 L 5 5 Z M 0.589 -0.589 C 0.264 -0.915 -0.264 -0.915 -0.589 -0.589 C -0.915 -0.264 -0.915 0.264 -0.589 0.589 L 0 0 L 0.589 -0.589 Z M 0 10 L 0.589 10.589 L 5.589 5.589 L 5 5 L 4.411 4.411 L -0.589 9.411 L 0 10 Z M 5 5 L 5.589 4.411 L 0.589 -0.589 L 0 0 L -0.589 0.589 L 4.411 5.589 L 5 5 Z" fill="currentColor" fill-rule="nonzero"/>
</svg>
