<svg xmlns="http://www.w3.org/2000/svg" width="20" height="18" viewBox="0 0 20 18" fill="none">
  <path d="M 18.462 5.792 C 18.462 4.649 18.004 3.556 17.195 2.752 C 16.386 1.949 15.292 1.5 14.154 1.5 C 13.421 1.5 12.839 1.603 12.299 1.837 C 11.752 2.073 11.198 2.465 10.549 3.109 C 10.404 3.253 10.206 3.333 10 3.333 C 9.794 3.333 9.596 3.253 9.451 3.109 C 8.802 2.465 8.248 2.073 7.701 1.837 C 7.161 1.603 6.579 1.5 5.846 1.5 C 4.708 1.5 3.614 1.949 2.805 2.752 C 1.996 3.556 1.538 4.649 1.538 5.792 C 1.539 7.455 2.56 8.798 3.823 10.05 L 4.078 10.299 L 4.087 10.308 L 10 16.179 L 15.913 10.308 L 15.918 10.302 C 17.293 8.964 18.461 7.556 18.462 5.792 Z M 20 5.792 C 20 8.223 18.384 10.02 17.009 11.358 L 17.01 11.359 L 10.549 17.775 C 10.404 17.919 10.206 18 10 18 C 9.794 18 9.596 17.919 9.451 17.775 L 2.999 11.368 L 2.736 11.112 C 1.413 9.805 0 8.082 0 5.792 C 0 4.26 0.613 2.789 1.707 1.701 C 2.803 0.614 4.291 0 5.846 0 C 6.737 0 7.541 0.127 8.325 0.466 C 8.908 0.718 9.454 1.076 10 1.548 C 10.546 1.076 11.092 0.718 11.675 0.466 C 12.459 0.127 13.263 0 14.154 0 C 15.709 0 17.197 0.614 18.293 1.701 C 19.387 2.789 20 4.26 20 5.792 Z" fill="currentColor" fill-rule="nonzero"/>
</svg>
