<svg xmlns="http://www.w3.org/2000/svg" width="14.667" height="14.667" viewBox="0 0 14.667 14.667" fill="none">
  <path d="M 14.667 7.333 L 13.658 7.333 C 13.658 10.827 10.827 13.658 7.333 13.658 L 7.333 14.667 L 7.333 15.675 C 11.94 15.675 15.675 11.94 15.675 7.333 L 14.667 7.333 Z M 7.333 14.667 L 7.333 13.658 C 3.84 13.658 1.008 10.827 1.008 7.333 L 0 7.333 L -1.008 7.333 C -1.008 11.94 2.726 15.675 7.333 15.675 L 7.333 14.667 Z M 0 7.333 L 1.008 7.333 C 1.008 3.84 3.84 1.008 7.333 1.008 L 7.333 0 L 7.333 -1.008 C 2.726 -1.008 -1.008 2.726 -1.008 7.333 L 0 7.333 Z M 7.333 0 L 7.333 1.008 C 10.827 1.008 13.658 3.84 13.658 7.333 L 14.667 7.333 L 15.675 7.333 C 15.675 2.726 11.94 -1.008 7.333 -1.008 L 7.333 0 Z" fill="currentColor" fill-rule="nonzero"/>
</svg>
