<svg width="120" height="24" viewBox="0 0 120 24" fill="none" xmlns="http://www.w3.org/2000/svg">
<path d="M48.0849 24L53.9556 6.48L38.3714 0L0.888289 3.81126L1.73805 11.5392L0 12.048L2.28839 23.4912L37.0679 20.5632L48.0849 24Z" fill="#3DF5DC"/>
<path d="M116.321 18.23H118.117V15.3692H120V13.814H118.117V10.3484L116.331 10.7516V13.814H112.43V13.7756L117.489 5.50043H115.413L110.451 13.7564V15.3692H116.321V18.23ZM101.915 18.23H110.451V16.6748H104.551V16.6364C107.767 13.9388 109.997 11.8076 109.997 9.10999C109.997 6.89243 108.403 5.30843 105.903 5.30843C104.319 5.30843 102.369 6.15325 101.732 8.7068L103.431 9.10043C103.807 7.53562 104.821 6.91169 105.903 6.91169C107.245 6.91169 108.162 7.80443 108.162 9.19643C108.162 11.5388 105.806 13.382 101.915 16.7996V18.23ZM99.4048 18.3644C99.926 18.3644 100.389 18.3068 100.757 18.2204V16.7708C100.457 16.8572 100.081 16.9052 99.7229 16.9052C98.7868 16.9052 98.1202 16.646 98.1202 15.5132V10.1948H100.757V8.7548H98.1202V5.7788L96.3434 6.18199V8.7548H94.6735V10.1948H96.3434V15.734C96.3434 17.5484 97.4154 18.3644 99.4048 18.3644ZM89.4014 18.422C90.6376 18.422 91.6027 17.8844 92.1239 17.0876H92.1629L92.2786 18.23H93.8046V8.7548H92.0277V14.2556C92.0277 16.1564 90.8689 16.9532 89.6328 16.9532C88.3974 16.9532 87.673 16.166 87.673 14.6396V8.7548H85.8961V14.7548C85.8961 17.1932 87.1995 18.422 89.4014 18.422ZM79.9193 16.9052C78.1142 16.9052 77.0133 15.5804 77.0133 13.4972C77.0133 11.414 78.1142 10.0796 79.9193 10.0796C81.7251 10.0796 82.8159 11.4044 82.8159 13.4972C82.8159 15.5901 81.7157 16.9052 79.9193 16.9052ZM79.9193 18.422C82.8065 18.422 84.6896 16.2044 84.6896 13.4972C84.6896 10.79 82.8065 8.5628 79.9193 8.5628C77.0328 8.5628 75.1402 10.7612 75.1402 13.4972C75.1402 16.2332 77.0227 18.422 79.9193 18.422ZM70.3122 18.422C72.4366 18.422 73.8846 17.318 74.6089 15.7148L73.0157 15.062C72.5429 16.2044 71.606 16.9052 70.3122 16.9052C68.5066 16.9052 67.4058 15.5804 67.4058 13.4972C67.4058 11.414 68.5066 10.0796 70.2929 10.0796C71.577 10.0796 72.4945 10.7708 72.9868 11.9132L74.5605 11.2412C73.8362 9.64762 72.3398 8.5628 70.2929 8.5628C67.4155 8.5628 65.5326 10.7612 65.5326 13.4972C65.5326 16.2332 67.4155 18.422 70.3122 18.422ZM60.2124 18.4124C62.829 18.4124 64.6154 17.0108 64.6154 14.6108C64.6154 12.7388 63.447 11.8076 61.5159 11.1932L59.7682 10.6364C58.6579 10.2812 57.8854 9.8588 57.8854 8.7068C57.8854 7.5548 58.8124 6.8828 60.0096 6.8828C61.2069 6.8828 62.2401 7.51643 63.0029 8.4188L64.2581 7.27643C63.4373 6.26843 61.8153 5.31799 60.0096 5.31799C57.6826 5.31799 56.0315 6.76762 56.0315 8.82199C56.0315 10.8764 57.4219 11.7404 59.2468 12.3548L60.869 12.902C62.1918 13.3436 62.7421 13.814 62.7421 14.8028C62.7421 16.07 61.7573 16.838 60.2028 16.838C58.6482 16.838 57.393 16.0124 56.5819 14.774L55.1625 15.8204C56.2536 17.5196 58.3102 18.4124 60.2124 18.4124ZM42.9771 16.9052C44.7731 16.9052 45.8738 15.5804 45.8738 13.4972C45.8738 11.414 44.7731 10.0796 42.9771 10.0796C41.1812 10.0796 40.0708 11.4044 40.0708 13.4972C40.0708 15.5901 41.1715 16.9052 42.9771 16.9052ZM42.9771 18.422C40.0804 18.422 38.1976 16.2044 38.1976 13.4972C38.1976 10.79 40.0804 8.5628 42.9771 8.5628C45.8738 8.5628 47.747 10.7612 47.747 13.4972C47.747 16.2332 45.8641 18.422 42.9771 18.422ZM24.0328 18.23V8.7548H25.5777L25.6936 9.9068H25.7322C26.1763 9.1388 27.1419 8.5628 28.3295 8.5628C29.7007 8.5628 30.6662 9.21562 31.0718 10.0796H31.1104C31.6608 9.11962 32.636 8.5628 33.8816 8.5628C35.8706 8.5628 37.0389 9.73399 37.0389 11.942V18.23H35.2623V12.086C35.2623 10.6844 34.5381 10.0316 33.447 10.0316C32.356 10.0316 31.429 10.79 31.429 12.5564V18.23H29.6524V12.1724C29.6524 10.7804 28.9958 10.0316 27.9047 10.0316C26.8136 10.0316 25.8095 10.79 25.8095 12.5564V18.23H24.0328ZM9.33694 18.2012V8.72599H10.8818L10.9977 9.87799H11.0363C11.4805 9.10999 12.4461 8.53399 13.6337 8.53399C15.0048 8.53399 15.9703 9.1868 16.3759 10.0508H16.4146C16.9649 9.0908 17.9401 8.53399 19.1857 8.53399C21.1747 8.53399 22.3431 9.70525 22.3431 11.9132V18.2012H20.5664V12.0572C20.5664 10.6556 19.8423 10.0028 18.7512 10.0028C17.6601 10.0028 16.7331 10.7612 16.7331 12.5276V18.2012H14.9566V12.1436C14.9566 10.7516 14.3 10.0028 13.2089 10.0028C12.1178 10.0028 11.1136 10.7612 11.1136 12.5276V18.2012H9.33694ZM5.73542 18.2204V5.89399L7.55067 5.50999V18.2204H5.73542Z" fill="#333333"/>
</svg>
