<svg xmlns="http://www.w3.org/2000/svg" width="120" height="24" viewBox="0 0 120 24" fill="none">
  <path d="M 48.085 24 L 53.956 6.48 L 38.371 0 L 0.888 3.811 L 1.738 11.539 L 0 12.048 L 2.288 23.491 L 37.068 20.563 L 48.085 24 Z" fill="currentColor" fill-rule="nonzero"/>
  <path d="M 116.321 18.23 L 118.117 18.23 L 118.117 15.369 L 120 15.369 L 120 13.814 L 118.117 13.814 L 118.117 10.348 L 116.331 10.752 L 116.331 13.814 L 112.43 13.814 L 112.43 13.776 L 117.489 5.5 L 115.413 5.5 L 110.451 13.756 L 110.451 15.369 L 116.321 15.369 L 116.321 18.23 Z M 101.915 18.23 L 110.451 18.23 L 110.451 16.675 L 104.551 16.675 L 104.551 16.636 C 107.767 13.939 109.997 11.808 109.997 9.11 C 109.997 6.892 108.403 5.308 105.903 5.308 C 104.319 5.308 102.369 6.153 101.732 8.707 L 103.431 9.1 C 103.807 7.536 104.821 6.912 105.903 6.912 C 107.245 6.912 108.162 7.804 108.162 9.196 C 108.162 11.539 105.806 13.382 101.915 16.8 L 101.915 18.23 Z M 99.405 18.364 C 99.926 18.364 100.389 18.307 100.757 18.22 L 100.757 16.771 C 100.457 16.857 100.081 16.905 99.723 16.905 C 98.787 16.905 98.12 16.646 98.12 15.513 L 98.12 10.195 L 100.757 10.195 L 100.757 8.755 L 98.12 8.755 L 98.12 5.779 L 96.343 6.182 L 96.343 8.755 L 94.674 8.755 L 94.674 10.195 L 96.343 10.195 L 96.343 15.734 C 96.343 17.548 97.415 18.364 99.405 18.364 Z M 89.401 18.422 C 90.638 18.422 91.603 17.884 92.124 17.088 L 92.163 17.088 L 92.279 18.23 L 93.805 18.23 L 93.805 8.755 L 92.028 8.755 L 92.028 14.256 C 92.028 16.156 90.869 16.953 89.633 16.953 C 88.397 16.953 87.673 16.166 87.673 14.64 L 87.673 8.755 L 85.896 8.755 L 85.896 14.755 C 85.896 17.193 87.2 18.422 89.401 18.422 Z M 79.919 16.905 C 78.114 16.905 77.013 15.58 77.013 13.497 C 77.013 11.414 78.114 10.08 79.919 10.08 C 81.725 10.08 82.816 11.404 82.816 13.497 C 82.816 15.59 81.716 16.905 79.919 16.905 Z M 79.919 18.422 C 82.807 18.422 84.69 16.204 84.69 13.497 C 84.69 10.79 82.807 8.563 79.919 8.563 C 77.033 8.563 75.14 10.761 75.14 13.497 C 75.14 16.233 77.023 18.422 79.919 18.422 Z M 70.312 18.422 C 72.437 18.422 73.885 17.318 74.609 15.715 L 73.016 15.062 C 72.543 16.204 71.606 16.905 70.312 16.905 C 68.507 16.905 67.406 15.58 67.406 13.497 C 67.406 11.414 68.507 10.08 70.293 10.08 C 71.577 10.08 72.494 10.771 72.987 11.913 L 74.56 11.241 C 73.836 9.648 72.34 8.563 70.293 8.563 C 67.415 8.563 65.533 10.761 65.533 13.497 C 65.533 16.233 67.415 18.422 70.312 18.422 Z M 60.212 18.412 C 62.829 18.412 64.615 17.011 64.615 14.611 C 64.615 12.739 63.447 11.808 61.516 11.193 L 59.768 10.636 C 58.658 10.281 57.885 9.859 57.885 8.707 C 57.885 7.555 58.812 6.883 60.01 6.883 C 61.207 6.883 62.24 7.516 63.003 8.419 L 64.258 7.276 C 63.437 6.268 61.815 5.318 60.01 5.318 C 57.683 5.318 56.032 6.768 56.032 8.822 C 56.032 10.876 57.422 11.74 59.247 12.355 L 60.869 12.902 C 62.192 13.344 62.742 13.814 62.742 14.803 C 62.742 16.07 61.757 16.838 60.203 16.838 C 58.648 16.838 57.393 16.012 56.582 14.774 L 55.162 15.82 C 56.254 17.52 58.31 18.412 60.212 18.412 Z M 42.977 16.905 C 44.773 16.905 45.874 15.58 45.874 13.497 C 45.874 11.414 44.773 10.08 42.977 10.08 C 41.181 10.08 40.071 11.404 40.071 13.497 C 40.071 15.59 41.171 16.905 42.977 16.905 Z M 42.977 18.422 C 40.08 18.422 38.198 16.204 38.198 13.497 C 38.198 10.79 40.08 8.563 42.977 8.563 C 45.874 8.563 47.747 10.761 47.747 13.497 C 47.747 16.233 45.864 18.422 42.977 18.422 Z M 24.033 18.23 L 24.033 8.755 L 25.578 8.755 L 25.694 9.907 L 25.732 9.907 C 26.176 9.139 27.142 8.563 28.33 8.563 C 29.701 8.563 30.666 9.216 31.072 10.08 L 31.11 10.08 C 31.661 9.12 32.636 8.563 33.882 8.563 C 35.871 8.563 37.039 9.734 37.039 11.942 L 37.039 18.23 L 35.262 18.23 L 35.262 12.086 C 35.262 10.684 34.538 10.032 33.447 10.032 C 32.356 10.032 31.429 10.79 31.429 12.556 L 31.429 18.23 L 29.652 18.23 L 29.652 12.172 C 29.652 10.78 28.996 10.032 27.905 10.032 C 26.814 10.032 25.809 10.79 25.809 12.556 L 25.809 18.23 L 24.033 18.23 Z M 9.337 18.201 L 9.337 8.726 L 10.882 8.726 L 10.998 9.878 L 11.036 9.878 C 11.481 9.11 12.446 8.534 13.634 8.534 C 15.005 8.534 15.97 9.187 16.376 10.051 L 16.415 10.051 C 16.965 9.091 17.94 8.534 19.186 8.534 C 21.175 8.534 22.343 9.705 22.343 11.913 L 22.343 18.201 L 20.566 18.201 L 20.566 12.057 C 20.566 10.656 19.842 10.003 18.751 10.003 C 17.66 10.003 16.733 10.761 16.733 12.528 L 16.733 18.201 L 14.957 18.201 L 14.957 12.144 C 14.957 10.752 14.3 10.003 13.209 10.003 C 12.118 10.003 11.114 10.761 11.114 12.528 L 11.114 18.201 L 9.337 18.201 Z M 5.735 18.22 L 5.735 5.894 L 7.551 5.51 L 7.551 18.22 L 5.735 18.22 Z" fill="currentColor" fill-rule="nonzero"/>
</svg>
