<svg xmlns="http://www.w3.org/2000/svg" width="12.833" height="18.333" viewBox="0 0 12.833 18.333" fill="none">
  <path d="M 6.417 0 L 6.417 -0.917 L 6.417 0 Z M 13.75 7.333 C 13.75 6.827 13.34 6.417 12.833 6.417 C 12.327 6.417 11.917 6.827 11.917 7.333 L 12.833 7.333 L 13.75 7.333 Z M 12.833 9.167 L 13.75 9.167 L 13.75 9.167 L 12.833 9.167 Z M 6.417 15.583 L 6.417 14.667 L 6.417 15.583 Z M 0 9.167 L -0.917 9.167 L -0.917 9.167 L 0 9.167 Z M 0.917 7.333 C 0.917 6.827 0.506 6.417 0 6.417 C -0.506 6.417 -0.917 6.827 -0.917 7.333 L 0 7.333 L 0.917 7.333 Z M 5.5 18.333 C 5.5 18.84 5.91 19.25 6.417 19.25 C 6.923 19.25 7.333 18.84 7.333 18.333 L 6.417 18.333 L 5.5 18.333 Z M 6.417 0 L 6.417 -0.917 C 5.444 -0.917 4.512 -0.53 3.824 0.157 L 4.472 0.805 L 5.12 1.454 C 5.464 1.11 5.93 0.917 6.417 0.917 L 6.417 0 Z M 4.472 0.805 L 3.824 0.157 C 3.136 0.845 2.75 1.778 2.75 2.75 L 3.667 2.75 L 4.583 2.75 C 4.583 2.264 4.776 1.797 5.12 1.454 L 4.472 0.805 Z M 3.667 2.75 L 2.75 2.75 L 2.75 9.167 L 3.667 9.167 L 4.583 9.167 L 4.583 2.75 L 3.667 2.75 Z M 3.667 9.167 L 2.75 9.167 C 2.75 10.139 3.136 11.072 3.824 11.759 L 4.472 11.111 L 5.12 10.463 C 4.776 10.119 4.583 9.653 4.583 9.167 L 3.667 9.167 Z M 4.472 11.111 L 3.824 11.759 C 4.512 12.447 5.444 12.833 6.417 12.833 L 6.417 11.917 L 6.417 11 C 5.93 11 5.464 10.807 5.12 10.463 L 4.472 11.111 Z M 6.417 11.917 L 6.417 12.833 C 7.389 12.833 8.322 12.447 9.009 11.759 L 8.361 11.111 L 7.713 10.463 C 7.369 10.807 6.903 11 6.417 11 L 6.417 11.917 Z M 8.361 11.111 L 9.009 11.759 C 9.697 11.072 10.083 10.139 10.083 9.167 L 9.167 9.167 L 8.25 9.167 C 8.25 9.653 8.057 10.119 7.713 10.463 L 8.361 11.111 Z M 9.167 9.167 L 10.083 9.167 L 10.083 2.75 L 9.167 2.75 L 8.25 2.75 L 8.25 9.167 L 9.167 9.167 Z M 9.167 2.75 L 10.083 2.75 C 10.083 1.778 9.697 0.845 9.009 0.157 L 8.361 0.805 L 7.713 1.454 C 8.057 1.797 8.25 2.264 8.25 2.75 L 9.167 2.75 Z M 8.361 0.805 L 9.009 0.157 C 8.322 -0.53 7.389 -0.917 6.417 -0.917 L 6.417 0 L 6.417 0.917 C 6.903 0.917 7.369 1.11 7.713 1.454 L 8.361 0.805 Z M 12.833 7.333 L 11.917 7.333 L 11.917 9.167 L 12.833 9.167 L 13.75 9.167 L 13.75 7.333 L 12.833 7.333 Z M 12.833 9.167 L 11.917 9.167 C 11.917 10.625 11.337 12.024 10.306 13.056 L 10.954 13.704 L 11.602 14.352 C 12.977 12.977 13.75 11.112 13.75 9.167 L 12.833 9.167 Z M 10.954 13.704 L 10.306 13.056 C 9.274 14.087 7.875 14.667 6.417 14.667 L 6.417 15.583 L 6.417 16.5 C 8.362 16.5 10.227 15.727 11.602 14.352 L 10.954 13.704 Z M 6.417 15.583 L 6.417 14.667 C 4.958 14.667 3.559 14.087 2.528 13.056 L 1.879 13.704 L 1.231 14.352 C 2.606 15.727 4.472 16.5 6.417 16.5 L 6.417 15.583 Z M 1.879 13.704 L 2.528 13.056 C 1.496 12.024 0.917 10.625 0.917 9.167 L 0 9.167 L -0.917 9.167 C -0.917 11.112 -0.144 12.977 1.231 14.352 L 1.879 13.704 Z M 0 9.167 L 0.917 9.167 L 0.917 7.333 L 0 7.333 L -0.917 7.333 L -0.917 9.167 L 0 9.167 Z M 6.417 15.583 L 5.5 15.583 L 5.5 18.333 L 6.417 18.333 L 7.333 18.333 L 7.333 15.583 L 6.417 15.583 Z" fill="currentColor" fill-rule="nonzero"/>
</svg>
