<svg xmlns="http://www.w3.org/2000/svg" width="16.500" height="16.500" viewBox="0 0 16.500 16.500" fill="none">
  <path d="M 15.963 12.296 L 15.444 11.778 L 15.963 12.296 Z M 3.667 12.833 L 3.667 12.1 C 3.472 12.1 3.286 12.177 3.148 12.315 L 3.667 12.833 Z M 0 16.5 L -0.733 16.5 C -0.733 16.797 -0.555 17.064 -0.281 17.178 C -0.007 17.291 0.309 17.228 0.519 17.019 L 0 16.5 Z M 1.833 0 L 1.833 -0.733 L 1.833 0 Z M 14.667 0 L 14.667 -0.733 L 14.667 0 Z M 15.963 0.537 L 15.444 1.056 L 15.963 0.537 Z M 16.5 11 L 15.767 11 C 15.767 11.292 15.651 11.572 15.444 11.778 L 15.963 12.296 L 16.482 12.815 C 16.963 12.334 17.233 11.681 17.233 11 L 16.5 11 Z M 15.963 12.296 L 15.444 11.778 C 15.238 11.984 14.958 12.1 14.667 12.1 L 14.667 12.833 L 14.667 13.567 C 15.347 13.567 16 13.296 16.482 12.815 L 15.963 12.296 Z M 14.667 12.833 L 14.667 12.1 L 3.667 12.1 L 3.667 12.833 L 3.667 13.567 L 14.667 13.567 L 14.667 12.833 Z M 3.667 12.833 L 3.148 12.315 L -0.519 15.981 L 0 16.5 L 0.519 17.019 L 4.185 13.352 L 3.667 12.833 Z M 0 16.5 L 0.733 16.5 L 0.733 1.833 L 0 1.833 L -0.733 1.833 L -0.733 16.5 L 0 16.5 Z M 0 1.833 L 0.733 1.833 C 0.733 1.542 0.849 1.262 1.056 1.056 L 0.537 0.537 L 0.018 0.018 C -0.463 0.5 -0.733 1.153 -0.733 1.833 L 0 1.833 Z M 0.537 0.537 L 1.056 1.056 C 1.262 0.849 1.542 0.733 1.833 0.733 L 1.833 0 L 1.833 -0.733 C 1.153 -0.733 0.5 -0.463 0.018 0.018 L 0.537 0.537 Z M 1.833 0 L 1.833 0.733 L 14.667 0.733 L 14.667 0 L 14.667 -0.733 L 1.833 -0.733 L 1.833 0 Z M 14.667 0 L 14.667 0.733 C 14.958 0.733 15.238 0.849 15.444 1.056 L 15.963 0.537 L 16.482 0.018 C 16 -0.463 15.347 -0.733 14.667 -0.733 L 14.667 0 Z M 15.963 0.537 L 15.444 1.056 C 15.651 1.262 15.767 1.542 15.767 1.833 L 16.5 1.833 L 17.233 1.833 C 17.233 1.153 16.963 0.5 16.482 0.018 L 15.963 0.537 Z M 16.5 1.833 L 15.767 1.833 L 15.767 11 L 16.5 11 L 17.233 11 L 17.233 1.833 L 16.5 1.833 Z" fill="currentColor" fill-rule="nonzero"/>
</svg>
