<svg xmlns="http://www.w3.org/2000/svg" width="5.500" height="8.250" viewBox="0 0 5.500 8.250" fill="none">
  <path d="M 4.767 8.25 C 4.767 8.655 5.095 8.983 5.5 8.983 C 5.905 8.983 6.233 8.655 6.233 8.25 L 5.5 8.25 L 4.767 8.25 Z M -0.733 8.25 C -0.733 8.655 -0.405 8.983 0 8.983 C 0.405 8.983 0.733 8.655 0.733 8.25 L 0 8.25 L -0.733 8.25 Z M 5.5 8.25 L 6.233 8.25 L 6.233 0.917 L 5.5 0.917 L 4.767 0.917 L 4.767 8.25 L 5.5 8.25 Z M 5.5 0.917 L 6.233 0.917 C 6.233 0.479 6.059 0.059 5.75 -0.25 L 5.232 0.268 L 4.713 0.787 C 4.747 0.821 4.767 0.868 4.767 0.917 L 5.5 0.917 Z M 5.232 0.268 L 5.75 -0.25 C 5.441 -0.559 5.021 -0.733 4.583 -0.733 L 4.583 0 L 4.583 0.733 C 4.632 0.733 4.679 0.753 4.713 0.787 L 5.232 0.268 Z M 4.583 0 L 4.583 -0.733 L 0.917 -0.733 L 0.917 0 L 0.917 0.733 L 4.583 0.733 L 4.583 0 Z M 0.917 0 L 0.917 -0.733 C 0.479 -0.733 0.059 -0.559 -0.25 -0.25 L 0.268 0.268 L 0.787 0.787 C 0.821 0.753 0.868 0.733 0.917 0.733 L 0.917 0 Z M 0.268 0.268 L -0.25 -0.25 C -0.559 0.059 -0.733 0.479 -0.733 0.917 L 0 0.917 L 0.733 0.917 C 0.733 0.868 0.753 0.821 0.787 0.787 L 0.268 0.268 Z M 0 0.917 L -0.733 0.917 L -0.733 8.25 L 0 8.25 L 0.733 8.25 L 0.733 0.917 L 0 0.917 Z" fill="currentColor" fill-rule="nonzero"/>
</svg>
