<svg xmlns="http://www.w3.org/2000/svg" width="16.500" height="17.416" viewBox="0 0 16.500 17.416" fill="none">
  <path d="M 0 7.333 L 0.733 7.333 L 0.733 7.333 L 0 7.333 Z M 0.65 5.932 L 1.123 6.492 L 1.127 6.489 L 0.65 5.932 Z M 7.067 0.433 L 6.593 -0.127 L 6.589 -0.124 L 7.067 0.433 Z M 8.25 0 L 8.25 -0.733 L 8.25 0 Z M 9.433 0.433 L 9.911 -0.124 L 9.907 -0.127 L 9.433 0.433 Z M 15.85 5.932 L 15.373 6.489 L 15.377 6.492 L 15.85 5.932 Z M 16.5 7.333 L 15.767 7.333 L 15.767 7.333 L 16.5 7.333 Z M 15.963 16.879 L 15.444 16.361 L 15.963 16.879 Z M 0 15.583 L -0.733 15.583 L 0 15.583 Z M 0 7.333 L 0.733 7.333 C 0.733 7.173 0.768 7.015 0.836 6.869 L 0.17 6.561 L -0.495 6.252 C -0.652 6.591 -0.733 6.96 -0.733 7.333 L 0 7.333 Z M 0.17 6.561 L 0.836 6.869 C 0.903 6.724 1.001 6.596 1.123 6.492 L 0.65 5.932 L 0.177 5.372 C -0.109 5.613 -0.338 5.913 -0.495 6.252 L 0.17 6.561 Z M 0.65 5.932 L 1.127 6.489 L 7.544 0.99 L 7.067 0.433 L 6.589 -0.124 L 0.173 5.375 L 0.65 5.932 Z M 7.067 0.433 L 7.54 0.993 C 7.738 0.825 7.99 0.733 8.25 0.733 L 8.25 0 L 8.25 -0.733 C 7.643 -0.733 7.056 -0.519 6.593 -0.127 L 7.067 0.433 Z M 8.25 0 L 8.25 0.733 C 8.51 0.733 8.762 0.825 8.96 0.993 L 9.433 0.433 L 9.907 -0.127 C 9.444 -0.519 8.857 -0.733 8.25 -0.733 L 8.25 0 Z M 9.433 0.433 L 8.956 0.99 L 15.373 6.489 L 15.85 5.932 L 16.327 5.375 L 9.911 -0.124 L 9.433 0.433 Z M 15.85 5.932 L 15.377 6.492 C 15.499 6.596 15.597 6.724 15.664 6.869 L 16.33 6.561 L 16.995 6.252 C 16.838 5.913 16.609 5.613 16.323 5.372 L 15.85 5.932 Z M 16.33 6.561 L 15.664 6.869 C 15.732 7.015 15.767 7.173 15.767 7.333 L 16.5 7.333 L 17.233 7.333 C 17.233 6.96 17.152 6.591 16.995 6.252 L 16.33 6.561 Z M 16.5 7.333 L 15.767 7.333 L 15.767 15.583 L 16.5 15.583 L 17.233 15.583 L 17.233 7.333 L 16.5 7.333 Z M 16.5 15.583 L 15.767 15.583 C 15.767 15.875 15.651 16.154 15.444 16.361 L 15.963 16.879 L 16.482 17.398 C 16.963 16.916 17.233 16.264 17.233 15.583 L 16.5 15.583 Z M 15.963 16.879 L 15.444 16.361 C 15.238 16.567 14.958 16.683 14.667 16.683 L 14.667 17.416 L 14.667 18.15 C 15.347 18.15 16 17.879 16.482 17.398 L 15.963 16.879 Z M 14.667 17.416 L 14.667 16.683 L 1.833 16.683 L 1.833 17.416 L 1.833 18.15 L 14.667 18.15 L 14.667 17.416 Z M 1.833 17.416 L 1.833 16.683 C 1.542 16.683 1.262 16.567 1.056 16.361 L 0.537 16.879 L 0.018 17.398 C 0.5 17.879 1.153 18.15 1.833 18.15 L 1.833 17.416 Z M 0.537 16.879 L 1.056 16.361 C 0.849 16.154 0.733 15.875 0.733 15.583 L 0 15.583 L -0.733 15.583 C -0.733 16.264 -0.463 16.916 0.018 17.398 L 0.537 16.879 Z M 0 15.583 L 0.733 15.583 L 0.733 7.333 L 0 7.333 L -0.733 7.333 L -0.733 15.583 L 0 15.583 Z" fill="currentColor" fill-rule="nonzero"/>
</svg>
