<svg xmlns="http://www.w3.org/2000/svg" width="16.500" height="17.416" viewBox="0 0 16.500 17.416" fill="none">
  <path d="M 0 7.333 L 0.917 7.333 L 0.917 7.333 L 0 7.333 Z M 0.65 5.932 L 1.242 6.632 L 1.246 6.628 L 0.65 5.932 Z M 7.067 0.433 L 6.475 -0.267 L 6.47 -0.263 L 7.067 0.433 Z M 8.25 0 L 8.25 -0.917 L 8.25 0 Z M 9.433 0.433 L 10.03 -0.263 L 10.025 -0.267 L 9.433 0.433 Z M 15.85 5.932 L 15.254 6.628 L 15.258 6.632 L 15.85 5.932 Z M 16.5 7.333 L 15.583 7.333 L 15.583 7.333 L 16.5 7.333 Z M 15.963 16.879 L 15.315 16.231 L 15.963 16.879 Z M 0 15.583 L -0.917 15.583 L 0 15.583 Z M 0 7.333 L 0.917 7.333 C 0.917 7.199 0.946 7.068 1.002 6.947 L 0.17 6.561 L -0.661 6.175 C -0.83 6.538 -0.917 6.933 -0.917 7.333 L 0 7.333 Z M 0.17 6.561 L 1.002 6.947 C 1.058 6.826 1.14 6.718 1.242 6.632 L 0.65 5.932 L 0.058 5.232 C -0.247 5.49 -0.493 5.812 -0.661 6.175 L 0.17 6.561 Z M 0.65 5.932 L 1.246 6.628 L 7.663 1.129 L 7.067 0.433 L 6.47 -0.263 L 0.053 5.236 L 0.65 5.932 Z M 7.067 0.433 L 7.658 1.133 C 7.824 0.993 8.033 0.917 8.25 0.917 L 8.25 0 L 8.25 -0.917 C 7.6 -0.917 6.971 -0.687 6.475 -0.267 L 7.067 0.433 Z M 8.25 0 L 8.25 0.917 C 8.467 0.917 8.676 0.993 8.842 1.133 L 9.433 0.433 L 10.025 -0.267 C 9.529 -0.687 8.9 -0.917 8.25 -0.917 L 8.25 0 Z M 9.433 0.433 L 8.837 1.129 L 15.254 6.628 L 15.85 5.932 L 16.447 5.236 L 10.03 -0.263 L 9.433 0.433 Z M 15.85 5.932 L 15.258 6.632 C 15.36 6.718 15.442 6.826 15.498 6.947 L 16.33 6.561 L 17.161 6.175 C 16.993 5.812 16.747 5.49 16.442 5.232 L 15.85 5.932 Z M 16.33 6.561 L 15.498 6.947 C 15.554 7.068 15.583 7.199 15.583 7.333 L 16.5 7.333 L 17.417 7.333 C 17.417 6.933 17.33 6.538 17.161 6.175 L 16.33 6.561 Z M 16.5 7.333 L 15.583 7.333 L 15.583 15.583 L 16.5 15.583 L 17.417 15.583 L 17.417 7.333 L 16.5 7.333 Z M 16.5 15.583 L 15.583 15.583 C 15.583 15.826 15.487 16.059 15.315 16.231 L 15.963 16.879 L 16.611 17.527 C 17.127 17.012 17.417 16.312 17.417 15.583 L 16.5 15.583 Z M 15.963 16.879 L 15.315 16.231 C 15.143 16.403 14.91 16.5 14.667 16.5 L 14.667 17.416 L 14.667 18.333 C 15.396 18.333 16.095 18.043 16.611 17.527 L 15.963 16.879 Z M 14.667 17.416 L 14.667 16.5 L 1.833 16.5 L 1.833 17.416 L 1.833 18.333 L 14.667 18.333 L 14.667 17.416 Z M 1.833 17.416 L 1.833 16.5 C 1.59 16.5 1.357 16.403 1.185 16.231 L 0.537 16.879 L -0.111 17.527 C 0.405 18.043 1.104 18.333 1.833 18.333 L 1.833 17.416 Z M 0.537 16.879 L 1.185 16.231 C 1.013 16.059 0.917 15.826 0.917 15.583 L 0 15.583 L -0.917 15.583 C -0.917 16.312 -0.627 17.012 -0.111 17.527 L 0.537 16.879 Z M 0 15.583 L 0.917 15.583 L 0.917 7.333 L 0 7.333 L -0.917 7.333 L -0.917 15.583 L 0 15.583 Z" fill="currentColor" fill-rule="nonzero"/>
</svg>
