<svg xmlns="http://www.w3.org/2000/svg" width="5.500" height="8.250" viewBox="0 0 5.500 8.250" fill="none">
  <path d="M 4.583 8.25 C 4.583 8.756 4.994 9.167 5.5 9.167 C 6.006 9.167 6.417 8.756 6.417 8.25 L 5.5 8.25 L 4.583 8.25 Z M -0.917 8.25 C -0.917 8.756 -0.506 9.167 0 9.167 C 0.506 9.167 0.917 8.756 0.917 8.25 L 0 8.25 L -0.917 8.25 Z M 5.5 8.25 L 6.417 8.25 L 6.417 0.917 L 5.5 0.917 L 4.583 0.917 L 4.583 8.25 L 5.5 8.25 Z M 5.5 0.917 L 6.417 0.917 C 6.417 0.43 6.224 -0.036 5.88 -0.38 L 5.232 0.268 L 4.583 0.917 L 4.583 0.917 L 5.5 0.917 Z M 5.232 0.268 L 5.88 -0.38 C 5.536 -0.724 5.07 -0.917 4.583 -0.917 L 4.583 0 L 4.583 0.917 L 4.583 0.917 L 5.232 0.268 Z M 4.583 0 L 4.583 -0.917 L 0.917 -0.917 L 0.917 0 L 0.917 0.917 L 4.583 0.917 L 4.583 0 Z M 0.917 0 L 0.917 -0.917 C 0.43 -0.917 -0.036 -0.724 -0.38 -0.38 L 0.268 0.268 L 0.917 0.917 L 0.917 0.917 L 0.917 0 Z M 0.268 0.268 L -0.38 -0.38 C -0.724 -0.036 -0.917 0.43 -0.917 0.917 L 0 0.917 L 0.917 0.917 L 0.917 0.917 L 0.268 0.268 Z M 0 0.917 L -0.917 0.917 L -0.917 8.25 L 0 8.25 L 0.917 8.25 L 0.917 0.917 L 0 0.917 Z" fill="currentColor" fill-rule="nonzero"/>
</svg>
