<svg xmlns="http://www.w3.org/2000/svg" width="16.500" height="16.500" viewBox="0 0 16.500 16.500" fill="none">
  <path d="M 15.852 17.148 C 16.21 17.506 16.79 17.506 17.148 17.148 C 17.506 16.79 17.506 16.21 17.148 15.852 L 16.5 16.5 L 15.852 17.148 Z M 13.207 11.91 C 12.849 11.552 12.268 11.552 11.91 11.91 C 11.552 12.268 11.552 12.849 11.91 13.207 L 12.558 12.558 L 13.207 11.91 Z M 14.667 7.333 L 13.75 7.333 C 13.75 10.877 10.877 13.75 7.333 13.75 L 7.333 14.667 L 7.333 15.583 C 11.89 15.583 15.583 11.89 15.583 7.333 L 14.667 7.333 Z M 7.333 14.667 L 7.333 13.75 C 3.79 13.75 0.917 10.877 0.917 7.333 L 0 7.333 L -0.917 7.333 C -0.917 11.89 2.777 15.583 7.333 15.583 L 7.333 14.667 Z M 0 7.333 L 0.917 7.333 C 0.917 3.79 3.79 0.917 7.333 0.917 L 7.333 0 L 7.333 -0.917 C 2.777 -0.917 -0.917 2.777 -0.917 7.333 L 0 7.333 Z M 7.333 0 L 7.333 0.917 C 10.877 0.917 13.75 3.79 13.75 7.333 L 14.667 7.333 L 15.583 7.333 C 15.583 2.777 11.89 -0.917 7.333 -0.917 L 7.333 0 Z M 16.5 16.5 L 17.148 15.852 L 13.207 11.91 L 12.558 12.558 L 11.91 13.207 L 15.852 17.148 L 16.5 16.5 Z" fill="currentColor" fill-rule="nonzero"/>
</svg>
