<svg xmlns="http://www.w3.org/2000/svg" width="16.500" height="18.333" viewBox="0 0 16.500 18.333" fill="none">
  <path d="M 16.5 2.75 C 17.006 2.75 17.417 2.34 17.417 1.833 C 17.417 1.327 17.006 0.917 16.5 0.917 L 16.5 1.833 L 16.5 2.75 Z M 10.083 0.917 C 9.577 0.917 9.167 1.327 9.167 1.833 C 9.167 2.34 9.577 2.75 10.083 2.75 L 10.083 1.833 L 10.083 0.917 Z M 6.417 2.75 C 6.923 2.75 7.333 2.34 7.333 1.833 C 7.333 1.327 6.923 0.917 6.417 0.917 L 6.417 1.833 L 6.417 2.75 Z M 0 0.917 C -0.506 0.917 -0.917 1.327 -0.917 1.833 C -0.917 2.34 -0.506 2.75 0 2.75 L 0 1.833 L 0 0.917 Z M 16.5 10.083 C 17.006 10.083 17.417 9.673 17.417 9.167 C 17.417 8.66 17.006 8.25 16.5 8.25 L 16.5 9.167 L 16.5 10.083 Z M 8.25 8.25 C 7.744 8.25 7.333 8.66 7.333 9.167 C 7.333 9.673 7.744 10.083 8.25 10.083 L 8.25 9.167 L 8.25 8.25 Z M 4.583 10.083 C 5.09 10.083 5.5 9.673 5.5 9.167 C 5.5 8.66 5.09 8.25 4.583 8.25 L 4.583 9.167 L 4.583 10.083 Z M 0 8.25 C -0.506 8.25 -0.917 8.66 -0.917 9.167 C -0.917 9.673 -0.506 10.083 0 10.083 L 0 9.167 L 0 8.25 Z M 16.5 17.417 C 17.006 17.417 17.417 17.006 17.417 16.5 C 17.417 15.994 17.006 15.583 16.5 15.583 L 16.5 16.5 L 16.5 17.417 Z M 11.917 15.583 C 11.41 15.583 11 15.994 11 16.5 C 11 17.006 11.41 17.417 11.917 17.417 L 11.917 16.5 L 11.917 15.583 Z M 8.25 17.417 C 8.756 17.417 9.167 17.006 9.167 16.5 C 9.167 15.994 8.756 15.583 8.25 15.583 L 8.25 16.5 L 8.25 17.417 Z M 0 15.583 C -0.506 15.583 -0.917 15.994 -0.917 16.5 C -0.917 17.006 -0.506 17.417 0 17.417 L 0 16.5 L 0 15.583 Z M 11 0 C 11 -0.506 10.59 -0.917 10.083 -0.917 C 9.577 -0.917 9.167 -0.506 9.167 0 L 10.083 0 L 11 0 Z M 9.167 3.667 C 9.167 4.173 9.577 4.583 10.083 4.583 C 10.59 4.583 11 4.173 11 3.667 L 10.083 3.667 L 9.167 3.667 Z M 5.5 7.333 C 5.5 6.827 5.09 6.417 4.583 6.417 C 4.077 6.417 3.667 6.827 3.667 7.333 L 4.583 7.333 L 5.5 7.333 Z M 3.667 11 C 3.667 11.506 4.077 11.917 4.583 11.917 C 5.09 11.917 5.5 11.506 5.5 11 L 4.583 11 L 3.667 11 Z M 12.833 14.667 C 12.833 14.16 12.423 13.75 11.917 13.75 C 11.41 13.75 11 14.16 11 14.667 L 11.917 14.667 L 12.833 14.667 Z M 11 18.333 C 11 18.84 11.41 19.25 11.917 19.25 C 12.423 19.25 12.833 18.84 12.833 18.333 L 11.917 18.333 L 11 18.333 Z M 16.5 1.833 L 16.5 0.917 L 10.083 0.917 L 10.083 1.833 L 10.083 2.75 L 16.5 2.75 L 16.5 1.833 Z M 6.417 1.833 L 6.417 0.917 L 0 0.917 L 0 1.833 L 0 2.75 L 6.417 2.75 L 6.417 1.833 Z M 16.5 9.167 L 16.5 8.25 L 8.25 8.25 L 8.25 9.167 L 8.25 10.083 L 16.5 10.083 L 16.5 9.167 Z M 4.583 9.167 L 4.583 8.25 L 0 8.25 L 0 9.167 L 0 10.083 L 4.583 10.083 L 4.583 9.167 Z M 16.5 16.5 L 16.5 15.583 L 11.917 15.583 L 11.917 16.5 L 11.917 17.417 L 16.5 17.417 L 16.5 16.5 Z M 8.25 16.5 L 8.25 15.583 L 0 15.583 L 0 16.5 L 0 17.417 L 8.25 17.417 L 8.25 16.5 Z M 10.083 0 L 9.167 0 L 9.167 3.667 L 10.083 3.667 L 11 3.667 L 11 0 L 10.083 0 Z M 4.583 7.333 L 3.667 7.333 L 3.667 11 L 4.583 11 L 5.5 11 L 5.5 7.333 L 4.583 7.333 Z M 11.917 14.667 L 11 14.667 L 11 18.333 L 11.917 18.333 L 12.833 18.333 L 12.833 14.667 L 11.917 14.667 Z" fill="currentColor" fill-rule="nonzero"/>
</svg>
