<svg xmlns="http://www.w3.org/2000/svg" width="11.667" height="11.667" viewBox="0 0 11.667 11.667" fill="none">
  <path d="M 4.629 7.875 L 5.194 7.73 L 5.194 7.729 L 4.629 7.875 Z M 3.791 7.037 L 3.936 6.472 L 3.936 6.472 L 3.791 7.037 Z M 0.212 6.114 L 0.053 6.675 L 0.066 6.679 L 0.212 6.114 Z M 0.212 5.553 L 0.066 4.988 L 0.053 4.992 L 0.212 5.553 Z M 3.791 4.629 L 3.645 4.065 L 3.645 4.065 L 3.791 4.629 Z M 4.629 3.792 L 5.194 3.938 L 5.194 3.937 L 4.629 3.792 Z M 5.552 0.213 L 4.99 0.056 L 4.987 0.067 L 5.552 0.213 Z M 6.114 0.213 L 6.679 0.067 L 6.675 0.056 L 6.114 0.213 Z M 7.036 3.792 L 6.471 3.937 L 6.471 3.938 L 7.036 3.792 Z M 7.874 4.63 L 7.728 5.195 L 7.729 5.195 L 7.874 4.63 Z M 11.453 5.552 L 11.608 4.99 L 11.598 4.987 L 11.453 5.552 Z M 11.453 6.115 L 11.598 6.68 L 11.608 6.677 L 11.453 6.115 Z M 7.874 7.037 L 7.729 6.472 L 7.728 6.472 L 7.874 7.037 Z M 7.036 7.875 L 6.471 7.729 L 6.471 7.729 L 7.036 7.875 Z M 6.113 11.454 L 6.675 11.611 L 6.678 11.6 L 6.113 11.454 Z M 5.551 11.454 L 4.986 11.599 L 4.99 11.611 L 5.551 11.454 Z M 11.082 0.583 C 11.082 0.261 10.821 0 10.499 0 C 10.177 0 9.916 0.261 9.916 0.583 L 10.499 0.583 L 11.082 0.583 Z M 9.916 2.917 C 9.916 3.239 10.177 3.5 10.499 3.5 C 10.821 3.5 11.082 3.239 11.082 2.917 L 10.499 2.917 L 9.916 2.917 Z M 11.666 2.333 C 11.988 2.333 12.249 2.072 12.249 1.75 C 12.249 1.428 11.988 1.167 11.666 1.167 L 11.666 1.75 L 11.666 2.333 Z M 9.332 1.167 C 9.01 1.167 8.749 1.428 8.749 1.75 C 8.749 2.072 9.01 2.333 9.332 2.333 L 9.332 1.75 L 9.332 1.167 Z M 1.749 8.75 C 1.749 8.428 1.488 8.167 1.166 8.167 C 0.844 8.167 0.582 8.428 0.582 8.75 L 1.166 8.75 L 1.749 8.75 Z M 0.582 9.917 C 0.582 10.239 0.844 10.5 1.166 10.5 C 1.488 10.5 1.749 10.239 1.749 9.917 L 1.166 9.917 L 0.582 9.917 Z M 1.749 9.917 C 2.071 9.917 2.332 9.656 2.332 9.333 C 2.332 9.011 2.071 8.75 1.749 8.75 L 1.749 9.333 L 1.749 9.917 Z M 0.582 8.75 C 0.26 8.75 -0.001 9.011 -0.001 9.333 C -0.001 9.656 0.26 9.917 0.582 9.917 L 0.582 9.333 L 0.582 8.75 Z M 4.629 7.875 L 5.194 7.729 C 5.116 7.427 4.958 7.15 4.737 6.929 L 4.324 7.342 L 3.912 7.754 C 3.986 7.828 4.038 7.92 4.064 8.021 L 4.629 7.875 Z M 4.324 7.342 L 4.737 6.929 C 4.516 6.708 4.239 6.55 3.936 6.472 L 3.791 7.037 L 3.645 7.602 C 3.746 7.628 3.838 7.68 3.912 7.754 L 4.324 7.342 Z M 3.791 7.037 L 3.936 6.472 L 0.358 5.549 L 0.212 6.114 L 0.066 6.679 L 3.645 7.602 L 3.791 7.037 Z M 0.212 6.114 L 0.371 5.553 C 0.432 5.57 0.486 5.607 0.524 5.658 L 0.059 6.009 L -0.406 6.361 C -0.292 6.513 -0.13 6.623 0.053 6.675 L 0.212 6.114 Z M 0.059 6.009 L 0.524 5.658 C 0.563 5.708 0.583 5.77 0.583 5.833 L 0 5.833 L -0.583 5.833 C -0.583 6.024 -0.521 6.209 -0.406 6.361 L 0.059 6.009 Z M 0 5.833 L 0.583 5.833 C 0.583 5.897 0.563 5.959 0.524 6.009 L 0.059 5.658 L -0.406 5.306 C -0.521 5.458 -0.583 5.643 -0.583 5.833 L 0 5.833 Z M 0.059 5.658 L 0.524 6.009 C 0.486 6.06 0.432 6.097 0.371 6.114 L 0.212 5.553 L 0.053 4.992 C -0.13 5.044 -0.292 5.154 -0.406 5.306 L 0.059 5.658 Z M 0.212 5.553 L 0.358 6.118 L 3.937 5.194 L 3.791 4.629 L 3.645 4.065 L 0.066 4.988 L 0.212 5.553 Z M 3.791 4.629 L 3.936 5.194 C 4.239 5.116 4.515 4.959 4.737 4.738 L 4.324 4.325 L 3.912 3.912 C 3.838 3.986 3.746 4.039 3.645 4.065 L 3.791 4.629 Z M 4.324 4.325 L 4.737 4.738 C 4.958 4.517 5.116 4.24 5.194 3.938 L 4.629 3.792 L 4.064 3.646 C 4.038 3.747 3.986 3.839 3.912 3.912 L 4.324 4.325 Z M 4.629 3.792 L 5.194 3.937 L 6.117 0.359 L 5.552 0.213 L 4.987 0.067 L 4.064 3.646 L 4.629 3.792 Z M 5.552 0.213 L 6.114 0.37 C 6.096 0.432 6.06 0.486 6.009 0.524 L 5.656 0.059 L 5.304 -0.405 C 5.152 -0.29 5.042 -0.128 4.99 0.056 L 5.552 0.213 Z M 5.656 0.059 L 6.009 0.524 C 5.958 0.563 5.896 0.583 5.833 0.583 L 5.833 0 L 5.833 -0.583 C 5.642 -0.583 5.456 -0.521 5.304 -0.405 L 5.656 0.059 Z M 5.833 0 L 5.833 0.583 C 5.769 0.583 5.707 0.563 5.656 0.524 L 6.009 0.059 L 6.362 -0.405 C 6.209 -0.521 6.024 -0.583 5.833 -0.583 L 5.833 0 Z M 6.009 0.059 L 5.656 0.524 C 5.606 0.486 5.569 0.432 5.552 0.37 L 6.114 0.213 L 6.675 0.056 C 6.624 -0.128 6.514 -0.29 6.362 -0.405 L 6.009 0.059 Z M 6.114 0.213 L 5.549 0.359 L 6.471 3.937 L 7.036 3.792 L 7.601 3.646 L 6.678 0.067 L 6.114 0.213 Z M 7.036 3.792 L 6.471 3.938 C 6.549 4.24 6.707 4.517 6.928 4.738 L 7.341 4.325 L 7.753 3.913 C 7.679 3.839 7.627 3.747 7.601 3.646 L 7.036 3.792 Z M 7.341 4.325 L 6.928 4.738 C 7.149 4.959 7.426 5.117 7.728 5.195 L 7.874 4.63 L 8.02 4.065 C 7.919 4.039 7.827 3.987 7.753 3.913 L 7.341 4.325 Z M 7.874 4.63 L 7.729 5.195 L 11.307 6.117 L 11.453 5.552 L 11.598 4.987 L 8.02 4.065 L 7.874 4.63 Z M 11.453 5.552 L 11.298 6.115 C 11.236 6.098 11.182 6.061 11.143 6.01 L 11.607 5.657 L 12.071 5.303 C 11.955 5.151 11.793 5.041 11.608 4.99 L 11.453 5.552 Z M 11.607 5.657 L 11.143 6.01 C 11.105 5.959 11.084 5.897 11.084 5.833 L 11.667 5.833 L 12.25 5.833 C 12.25 5.642 12.187 5.456 12.071 5.303 L 11.607 5.657 Z M 11.667 5.833 L 11.084 5.833 C 11.084 5.77 11.105 5.708 11.143 5.657 L 11.607 6.01 L 12.071 6.364 C 12.187 6.211 12.25 6.025 12.25 5.833 L 11.667 5.833 Z M 11.607 6.01 L 11.143 5.657 C 11.182 5.606 11.236 5.569 11.298 5.552 L 11.453 6.115 L 11.608 6.677 C 11.793 6.626 11.955 6.516 12.071 6.364 L 11.607 6.01 Z M 11.453 6.115 L 11.307 5.55 L 7.729 6.472 L 7.874 7.037 L 8.02 7.602 L 11.598 6.68 L 11.453 6.115 Z M 7.874 7.037 L 7.728 6.472 C 7.426 6.55 7.149 6.708 6.928 6.929 L 7.341 7.342 L 7.753 7.754 C 7.827 7.68 7.919 7.628 8.02 7.602 L 7.874 7.037 Z M 7.341 7.342 L 6.928 6.929 C 6.707 7.15 6.549 7.427 6.471 7.729 L 7.036 7.875 L 7.601 8.021 C 7.627 7.92 7.679 7.828 7.753 7.754 L 7.341 7.342 Z M 7.036 7.875 L 6.471 7.729 L 5.548 11.308 L 6.113 11.454 L 6.678 11.6 L 7.601 8.021 L 7.036 7.875 Z M 6.113 11.454 L 5.551 11.297 C 5.568 11.235 5.605 11.181 5.656 11.143 L 6.008 11.608 L 6.361 12.072 C 6.513 11.957 6.623 11.795 6.675 11.611 L 6.113 11.454 Z M 6.008 11.608 L 5.656 11.143 C 5.707 11.104 5.768 11.084 5.832 11.084 L 5.832 11.667 L 5.832 12.25 C 6.023 12.25 6.209 12.188 6.361 12.072 L 6.008 11.608 Z M 5.832 11.667 L 5.832 11.084 C 5.896 11.084 5.958 11.104 6.008 11.143 L 5.656 11.608 L 5.303 12.072 C 5.455 12.188 5.641 12.25 5.832 12.25 L 5.832 11.667 Z M 5.656 11.608 L 6.008 11.143 C 6.059 11.181 6.096 11.235 6.113 11.297 L 5.551 11.454 L 4.99 11.611 C 5.041 11.795 5.151 11.957 5.303 12.072 L 5.656 11.608 Z M 5.551 11.454 L 6.116 11.308 L 5.194 7.73 L 4.629 7.875 L 4.064 8.021 L 4.986 11.599 L 5.551 11.454 Z M 10.499 0.583 L 9.916 0.583 L 9.916 2.917 L 10.499 2.917 L 11.082 2.917 L 11.082 0.583 L 10.499 0.583 Z M 11.666 1.75 L 11.666 1.167 L 9.332 1.167 L 9.332 1.75 L 9.332 2.333 L 11.666 2.333 L 11.666 1.75 Z M 1.166 8.75 L 0.582 8.75 L 0.582 9.917 L 1.166 9.917 L 1.749 9.917 L 1.749 8.75 L 1.166 8.75 Z M 1.749 9.333 L 1.749 8.75 L 0.582 8.75 L 0.582 9.333 L 0.582 9.917 L 1.749 9.917 L 1.749 9.333 Z" fill="currentColor" fill-rule="nonzero"/>
</svg>
